<?xml version="1.0" encoding="utf-8"?>
<!-- Generator: Adobe Illustrator 21.0.0, SVG Export Plug-In . SVG Version: 6.00 Build 0)  -->
<svg version="1.1" id="Layer_1" xmlns="http://www.w3.org/2000/svg" xmlns:xlink="http://www.w3.org/1999/xlink" x="0px" y="0px"
	 viewBox="0 0 189 62" style="enable-background:new 0 0 189 62;" xml:space="preserve">
<style type="text/css">
	.st0{display:none;fill:#FF0000;}
	.st1{display:none;fill:#FFFFFF;}
	.st2{fill:#FFFFFF;}
	.st3{opacity:0.8;}
	.st4{fill:none;stroke:#FFFFFF;stroke-width:0.75;stroke-miterlimit:10;}
	.st5{fill:#73BE44;}
	.st6{fill:#EC2226;}
	.st7{fill:#0F6FB6;}
</style>
<rect x="-241" y="-42" class="st0" width="566" height="197"/>
<g>
	<g id="remo_1_">
		<g>
			<path class="st2" d="M27.2,33.1c-1.4,0.4-2.4,0.5-3,0.4c0.8,4.6,4.6,8.5,9.2,7.6c0.2,1.6-3.6,5.1-7.4,0.2c-2.8-3.6-3-8.2-2.9-8.4
				c-0.3-0.5-0.3-1.1-0.2-1.4c3,0.3,13.5-4.3,11.6-8.4c-0.9-1.9-5.3-2.2-9.4-1c-3,0.9-5.8,2.8-7.2,3.9c-3.5,2.6-4.1,5.8-3.4,6.4
				c1.3,1.1,3.5-0.9,3.5-0.9s0.8,0.6,0.3,1.3c-0.9,1.4-3.8,1.6-5.5-0.3c-2.8-3.2,0.5-8.2,6-10.8c5.6-2.7,14.9-3.4,16.8,1.2
				C37.3,26.7,31.5,31.8,27.2,33.1z M18.2,39.8C17,34,22.4,24.6,23.6,23.7c0,0,1.9-1.2,1.7-0.8c-1.9,4.5-3.7,9.6-3.8,15.6
				c-0.1,2.9,0.6,3,0.6,3C20.8,42.2,18.7,42.2,18.2,39.8z"/>
		</g>
		<g>
			<path class="st2" d="M80,31.9c-0.1,0.4-1.7,2.3-3.4,1.7c0.1-2.1-1.2-6.1-4-5.9c-1.3,0.1-2.1,1.1-1.5,2.6c-2.7-0.2-4,1.2-4.7,2.7
				c-1.3,2.1-2.7,3.6-4.2,4.5c-0.8,0.6,0-1.8,1.1-4.8c1-2-0.8-3.7-1.1-4c0,0-0.1-0.1-0.1-0.2c-0.7-0.5-1.4-1.9-3.9,1.6
				c-2.3,3.2-3.6,5.8-3.5,5.6c0.2-1,2.9-4.7-1.8-6.1c-1.5-0.5-4.6,5.9-6,7.8c0-0.9,1-2.4,1.7-4.4c0.6-1.3-0.6-2-1.5-2.4
				c-0.6-0.2-0.9,0-1.2,0.3c-0.2,0.4-0.3,0.9-0.5,1.3c-1.2,2.2-4.1,5.7-7.1,5.8c-1.8,0.1-2-2.3-1.4-4.3c0.8-2.7,2-3.8,3-3.9
				c1.1-0.2-0.2,4.5-1.3,5.3c-0.4,0.3-1,0.5-1.3,0.2c-0.6,0.7,0.6,1.6,2.1,1c2.4-0.9,3.9-5.5,1.8-7.2c-0.3-0.3-0.8-0.5-1.4-0.5
				c-2.6-0.2-5.9,2-6.2,6.3c-0.2,2.9,1.7,4.1,4.4,4.3c2.4,0.1,4.8-1.6,6.5-3.6c-0.2,1.2,0,2.3,0.8,3c0.2,0.2,0.4,0.3,0.6,0.4
				c0,0,0,0,0,0l0.1,0v0c1.2,0.2,1.8-1,1.8-1c1.5-2.1,4.4-7.3,4.9-6.9c0.4,0.4-0.8,3-1.3,6.1c-0.4,2.5,2.3,2.1,2.3,2.1
				s1.8-3.1,4.7-7.1c1.5-2.2,2.1-2.8,2.4-2.7c-0.8,2.5-4.1,9,0.2,9.5c1.8,0.2,3.6-1.4,5-3.3c0.4,3,3.2,3.5,5.1,3.5
				c2.2,0,4.8-2.6,5.2-4.7c1.9,0.5,4.1-0.9,4.1-2.3C80.5,32,80.1,31.6,80,31.9z M71.1,37.8c-1.2,0.2-1.7-1.3-1.7-2.4
				c0-1.7,0.8-3.7,2.2-4.1c0.1,0.6,0.9,1.9,2.3,2.5C73.5,35.4,72.8,37.5,71.1,37.8z M74.1,32.7c-1.4-0.7-1.8-1.8-1.8-3.4
				c0-0.4,0.1-0.7,0.6-0.7c1.3,0,1.3,2.3,1.3,3.3C74.1,32.2,74.1,32.5,74.1,32.7z"/>
		</g>
	</g>
	<g class="st3">
		<path class="st2" d="M56.3,40.2h1.5c0.4,0,0.5,0.2,0.5,0.6l0.4,9.8h-1.3L57,41.2h-0.3l-2.3,7.6c-0.1,0.3-0.3,0.5-0.6,0.5h-1.2
			c-0.3,0-0.5-0.2-0.6-0.5l-2.3-7.6h-0.3l-0.4,9.3h-1.3l0.4-9.8c0-0.4,0.2-0.6,0.6-0.6h1.5c0.3,0,0.5,0.2,0.6,0.5l1.9,6.3
			c0.1,0.2,0.1,0.4,0.2,0.8c0.1,0.4,0.1,0.6,0.2,0.6h0.3c0-0.1,0.1-0.3,0.2-0.7c0.1-0.3,0.2-0.6,0.2-0.8l1.9-6.3
			C55.8,40.3,56,40.2,56.3,40.2z"/>
		<path class="st2" d="M66.6,47.3h-4.3l-1,3.2H60l3.3-10c0.1-0.2,0.2-0.4,0.5-0.4h1.4c0.3,0,0.4,0.1,0.5,0.4l3.3,10h-1.4L66.6,47.3z
			 M66.3,46.1L64.9,42c-0.1-0.3-0.2-0.5-0.3-0.8h-0.4L64,42l-1.3,4.1H66.3z"/>
		<path class="st2" d="M71.8,50.5h-1.3V40.2h1.3V50.5z"/>
		<path class="st2" d="M75.7,40.2v8.3c0,0.7,0.3,1,1,1h3.7l0.1,1c-0.9,0.1-2.2,0.1-4,0.1c-1.4,0-2.1-0.6-2.1-1.9v-8.4H75.7z"/>
	</g>
</g>
<line class="st4" x1="100" y1="15" x2="100" y2="55"/>
<g>
	<g>
		<circle class="st5" cx="131.5" cy="26.5" r="11.5"/>
	</g>
	<g>
		<circle class="st6" cx="154.5" cy="26.5" r="11.5"/>
	</g>
	<g>
		<circle class="st7" cx="177.4" cy="26.5" r="11.5"/>
	</g>
	<g>
		<path class="st2" d="M128.8,32.8h-1.7V20.2h8.7v1.5h-7v3.8h6.1v1.5h-6.1V32.8z"/>
	</g>
	<g>
		<path class="st2" d="M149.4,20.2h10.2v1.5h-4.2v11h-1.7v-11h-4.2V20.2z"/>
	</g>
	<g>
		<path class="st2" d="M124.8,42.1h5.5c2.3,0,3.5,1.4,3.5,3.2c0,0.8-0.3,2-1.7,2.6c0.8,0.3,2.3,0.9,2.3,3.1c0,2-1.5,3.7-4.3,3.7
			h-5.4V42.1z M126.5,47.4h3.1c1.6,0,2.6-0.5,2.6-2c0-1.2-0.7-1.8-2.6-1.8h-3.1V47.4z M126.5,53.2h3.6c1.8,0,2.7-0.9,2.7-2.3
			c0-1.8-1.6-2.1-2.9-2.1h-3.3V53.2z"/>
		<path class="st2" d="M138.4,54.7h-1.7V42.1h5.8c2.1,0,4.1,0.7,4.1,3.4c0,1.9-0.9,2.5-1.7,3c0.7,0.3,1.4,0.6,1.5,2.4l0.1,2.3
			c0,0.7,0.1,1,0.6,1.3v0.3H145c-0.2-0.8-0.3-2.7-0.3-3.1c0-1-0.2-2.2-2.2-2.2h-4.1V54.7z M138.4,47.8h3.9c1.2,0,2.6-0.3,2.6-2.2
			c0-1.9-1.4-2.1-2.3-2.1h-4.2V47.8z"/>
		<path class="st2" d="M151.1,51l-1.3,3.7H148l4.7-12.5h1.9l4.5,12.5h-1.9l-1.2-3.7H151.1z M155.5,49.5l-1.9-5.5h0l-2,5.5H155.5z"/>
		<path class="st2" d="M168.1,45.8c-0.1-1.9-1.7-2.6-3.1-2.6c-1.1,0-2.9,0.3-2.9,2.2c0,1.1,0.8,1.4,1.5,1.6l3.6,0.8
			c1.6,0.4,2.8,1.4,2.8,3.4c0,3-2.8,3.8-4.9,3.8c-2.3,0-3.2-0.7-3.8-1.2c-1.1-1-1.3-2-1.3-3.2h1.6c0,2.3,1.9,2.9,3.5,2.9
			c1.2,0,3.3-0.3,3.3-2.1c0-1.3-0.6-1.7-2.7-2.2l-2.6-0.6c-0.8-0.2-2.7-0.8-2.7-3c0-2,1.3-3.9,4.3-3.9c4.4,0,4.8,2.6,4.9,4H168.1z"
			/>
		<path class="st2" d="M174.1,54.7h-1.7V42.1h1.7V54.7z"/>
		<path class="st2" d="M178.7,53.2h6.4v1.5H177V42.1h1.7V53.2z"/>
	</g>
	<g>
		<path class="st2" d="M180.5,23.9c-0.1-1.9-1.7-2.6-3.1-2.6c-1.1,0-2.9,0.3-2.9,2.2c0,1.1,0.8,1.4,1.5,1.6l3.6,0.8
			c1.6,0.4,2.8,1.4,2.8,3.4c0,3-2.8,3.8-4.9,3.8c-2.3,0-3.2-0.7-3.8-1.2c-1.1-1-1.3-2-1.3-3.2h1.6c0,2.3,1.9,2.9,3.5,2.9
			c1.2,0,3.3-0.3,3.3-2.1c0-1.3-0.6-1.7-2.7-2.2l-2.6-0.6c-0.8-0.2-2.7-0.8-2.7-3c0-2,1.3-3.9,4.3-3.9c4.4,0,4.8,2.6,4.9,4H180.5z"
			/>
	</g>
</g>
</svg>
