<?xml version="1.0" encoding="utf-8"?>
<!-- Generator: Adobe Illustrator 21.0.0, SVG Export Plug-In . SVG Version: 6.00 Build 0)  -->
<svg version="1.1" id="Layer_1" xmlns="http://www.w3.org/2000/svg" xmlns:xlink="http://www.w3.org/1999/xlink" x="0px" y="0px"
	 viewBox="0 0 120 120" style="enable-background:new 0 0 120 120;" xml:space="preserve">
<style type="text/css">
	.st0{display:none;fill:#FF0000;}
	.st1{display:none;fill:#FFFFFF;}
	.st2{fill:#FFFFFF;}
	.st3{opacity:0.8;}
	.st4{fill:none;stroke:#FFFFFF;stroke-width:0.75;stroke-miterlimit:10;}
	.st5{fill:#73BE44;}
	.st6{fill:#EC2226;}
	.st7{fill:#0F6FB6;}
</style>
<rect x="-76" y="-42" class="st0" width="566" height="197"/>
<rect x="24" class="st1" width="70" height="93"/>
<g>
	<g id="remo">
		<g>
			<path class="st2" d="M21.5,111.2c-1.2,0.4-2,0.4-2.5,0.3c0.7,3.8,3.8,7,7.6,6.3c0.2,1.3-3,4.2-6.1,0.2c-2.3-3-2.4-6.8-2.4-6.9
				c-0.3-0.4-0.2-0.9-0.1-1.2c2.4,0.2,11.1-3.5,9.5-6.9c-0.7-1.6-4.4-1.8-7.7-0.8c-2.5,0.7-4.7,2.3-5.9,3.2
				c-2.9,2.1-3.4,4.7-2.8,5.3c1,0.9,2.9-0.8,2.9-0.8s0.7,0.5,0.2,1.1c-0.8,1.2-3.1,1.3-4.5-0.3c-2.3-2.6,0.4-6.7,4.9-8.9
				c4.6-2.2,12.2-2.8,13.8,0.9C29.8,105.9,25.1,110.1,21.5,111.2z M14.2,116.7c-1-4.8,3.5-12.5,4.4-13.2c0,0,1.6-1,1.4-0.6
				c-1.6,3.7-3,7.9-3.1,12.8c-0.1,2.4,0.5,2.5,0.5,2.5C16.3,118.7,14.6,118.7,14.2,116.7z"/>
		</g>
		<g>
			<path class="st2" d="M65,110.2c-0.1,0.3-1.4,1.9-2.8,1.4c0.1-1.7-1-5-3.2-4.9c-1.1,0.1-1.7,0.9-1.2,2.2c-2.2-0.1-3.3,1-3.8,2.2
				c-1.1,1.7-2.3,2.9-3.4,3.7c-0.7,0.5,0-1.5,0.9-4c0.8-1.6-0.6-3-0.9-3.3c0,0-0.1-0.1-0.1-0.1c-0.6-0.4-1.1-1.6-3.2,1.3
				c-1.9,2.6-3,4.7-2.9,4.6c0.2-0.8,2.4-3.8-1.5-5c-1.3-0.4-3.8,4.9-4.9,6.4c0-0.8,0.8-2,1.4-3.6c0.5-1-0.5-1.7-1.2-2
				c-0.5-0.1-0.8,0-1,0.3c-0.1,0.4-0.3,0.7-0.4,1.1c-1,1.8-3.4,4.7-5.8,4.7c-1.5,0.1-1.7-1.9-1.2-3.5c0.7-2.2,1.7-3.1,2.5-3.2
				c0.9-0.1-0.2,3.7-1.1,4.3c-0.3,0.2-0.8,0.4-1.1,0.2c-0.5,0.6,0.5,1.3,1.7,0.8c2-0.8,3.2-4.5,1.5-5.9c-0.3-0.2-0.6-0.4-1.1-0.4
				c-2.2-0.1-4.8,1.6-5.1,5.1c-0.2,2.4,1.4,3.4,3.6,3.5c1.9,0.1,4-1.3,5.4-3c-0.1,1,0,1.9,0.6,2.4c0.2,0.1,0.3,0.3,0.5,0.4
				c0,0,0,0,0,0l0.1,0v0c1,0.2,1.5-0.8,1.5-0.8c1.2-1.7,3.6-6,4.1-5.6c0.4,0.3-0.7,2.4-1.1,5c-0.3,2,1.9,1.8,1.9,1.8
				s1.5-2.5,3.8-5.8c1.3-1.8,1.7-2.3,1.9-2.3c-0.7,2.1-3.4,7.4,0.2,7.8c1.5,0.2,2.9-1.2,4.1-2.7c0.3,2.4,2.6,2.9,4.2,2.9
				c1.8,0,3.9-2.1,4.2-3.8c1.6,0.4,3.3-0.7,3.3-1.9C65.3,110.3,65,110,65,110.2z M57.6,115.1c-1,0.2-1.4-1.1-1.4-2
				c0-1.4,0.6-3,1.8-3.4c0.1,0.5,0.7,1.6,1.9,2.1C59.6,113.1,59.1,114.8,57.6,115.1z M60.1,110.9c-1.1-0.6-1.5-1.5-1.5-2.8
				c0-0.4,0.1-0.6,0.5-0.6c1,0,1.1,1.9,1.1,2.7C60.1,110.5,60.1,110.7,60.1,110.9z"/>
		</g>
	</g>
	<g>
		<path class="st2" d="M88.3,106.4h1.4c0.3,0,0.5,0.2,0.5,0.5l0.4,9.3h-1.2l-0.4-8.7h-0.3l-2.2,7.2c-0.1,0.3-0.3,0.4-0.5,0.4h-1.1
			c-0.3,0-0.5-0.1-0.6-0.4l-2.2-7.2h-0.3l-0.3,8.7h-1.2l0.4-9.3c0-0.3,0.2-0.5,0.5-0.5h1.4c0.3,0,0.4,0.1,0.5,0.4l1.8,6
			c0.1,0.2,0.1,0.4,0.2,0.8c0.1,0.3,0.1,0.5,0.1,0.6h0.3c0-0.1,0.1-0.3,0.2-0.6c0.1-0.3,0.1-0.6,0.2-0.7l1.8-5.9
			C87.8,106.5,88,106.4,88.3,106.4z"/>
		<path class="st2" d="M98.1,113.1h-4l-1,3.1h-1.3l3.1-9.4c0.1-0.2,0.2-0.3,0.5-0.3h1.3c0.3,0,0.4,0.1,0.5,0.3l3.1,9.4h-1.3
			L98.1,113.1z M97.8,112l-1.2-3.9c-0.1-0.2-0.2-0.5-0.2-0.8h-0.4l-0.2,0.8l-1.2,3.9H97.8z"/>
		<path class="st2" d="M103,116.2h-1.2v-9.8h1.2V116.2z"/>
		<path class="st2" d="M106.6,106.4v7.8c0,0.6,0.3,0.9,0.9,0.9h3.5l0.1,1c-0.8,0.1-2.1,0.1-3.8,0.1c-1.3,0-2-0.6-2-1.8v-8H106.6z"/>
	</g>
	<g>
		<rect x="72.6" y="100" class="st2" width="0.4" height="20"/>
	</g>
</g>
<g>
	<g>
		<circle class="st5" cx="20.3" cy="43.8" r="19.8"/>
	</g>
	<g>
		<circle class="st6" cx="60" cy="43.8" r="19.8"/>
	</g>
	<g>
		<circle class="st7" cx="99.7" cy="43.8" r="19.8"/>
	</g>
	<g>
		<path class="st2" d="M15.8,54.6h-2.9V32.9h15v2.6H15.8v6.6h10.6v2.6H15.8V54.6z"/>
	</g>
	<g>
		<path class="st2" d="M51.2,32.9h17.6v2.6h-7.3v19.1h-2.9V35.5h-7.3V32.9z"/>
	</g>
	<g>
		<path class="st2" d="M8.8,70.8h9.5c4,0,6.1,2.5,6.1,5.5c0,1.4-0.5,3.4-2.9,4.5c1.4,0.6,3.9,1.6,3.9,5.3c0,3.5-2.6,6.4-7.4,6.4H8.8
			V70.8z M11.7,79.9H17c2.8,0,4.5-0.8,4.5-3.5c0-2-1.2-3.2-4.5-3.2h-5.3V79.9z M11.7,89.9H18c3,0,4.6-1.5,4.6-4c0-3-2.7-3.6-5.1-3.6
			h-5.8V89.9z"/>
		<path class="st2" d="M32.3,92.4h-2.9V70.8h10c3.6,0,7.1,1.2,7.1,5.8c0,3.2-1.6,4.4-3,5.2c1.2,0.5,2.5,1.1,2.6,4.1l0.2,3.9
			c0,1.2,0.2,1.7,1.1,2.2v0.5h-3.6c-0.4-1.3-0.5-4.6-0.5-5.4c0-1.8-0.4-3.9-3.9-3.9h-7.1V92.4z M32.3,80.6h6.8
			c2.1,0,4.4-0.5,4.4-3.7c0-3.3-2.4-3.6-3.9-3.6h-7.3V80.6z"/>
		<path class="st2" d="M54.2,86.1l-2.3,6.3h-3L57,70.8h3.3l7.8,21.7H65l-2.1-6.3H54.2z M61.8,83.5L58.6,74h-0.1l-3.5,9.5H61.8z"/>
		<path class="st2" d="M83.5,77.1c-0.2-3.3-2.9-4.4-5.4-4.4c-1.8,0-4.9,0.5-4.9,3.8c0,1.8,1.3,2.4,2.6,2.7l6.2,1.4
			c2.8,0.7,4.9,2.4,4.9,5.8c0,5.1-4.8,6.5-8.5,6.5c-4,0-5.6-1.2-6.5-2.1c-1.8-1.7-2.2-3.5-2.2-5.5h2.7c0,3.9,3.2,5.1,6,5.1
			c2.1,0,5.7-0.5,5.7-3.6c0-2.3-1.1-3-4.6-3.8L75,82c-1.4-0.3-4.6-1.3-4.6-5.1c0-3.4,2.2-6.7,7.5-6.7c7.6,0,8.3,4.5,8.4,6.9H83.5z"
			/>
		<path class="st2" d="M93.9,92.4H91V70.8h2.9V92.4z"/>
		<path class="st2" d="M101.9,89.8h11v2.6H98.9V70.8h2.9V89.8z"/>
	</g>
	<g>
		<path class="st2" d="M104.9,39.3c-0.2-3.3-2.9-4.4-5.4-4.4c-1.8,0-4.9,0.5-4.9,3.8c0,1.8,1.3,2.4,2.6,2.7l6.2,1.4
			c2.8,0.7,4.9,2.4,4.9,5.8c0,5.1-4.8,6.5-8.5,6.5c-4,0-5.6-1.2-6.5-2.1c-1.8-1.7-2.2-3.5-2.2-5.5h2.7c0,3.9,3.2,5.1,6,5.1
			c2.1,0,5.7-0.5,5.7-3.6c0-2.3-1.1-3-4.6-3.8l-4.4-1c-1.4-0.3-4.6-1.3-4.6-5.1c0-3.4,2.2-6.7,7.5-6.7c7.6,0,8.3,4.5,8.4,6.9H104.9z
			"/>
	</g>
</g>
</svg>
