<?xml version="1.0" encoding="utf-8"?>
<!-- Generator: Adobe Illustrator 21.0.0, SVG Export Plug-In . SVG Version: 6.00 Build 0)  -->
<svg version="1.1" id="Layer_1" xmlns="http://www.w3.org/2000/svg" xmlns:xlink="http://www.w3.org/1999/xlink" x="0px" y="0px"
	 viewBox="0 0 299.5 103.5" style="enable-background:new 0 0 299.5 103.5;" xml:space="preserve">
<style type="text/css">
	.st0{fill:#72BF44;}
	.st1{fill:#EC2326;}
	.st2{fill:#136FB7;}
	.st3{fill:#FFFFFF;}
</style>
<g>
	<circle class="st2" cx="247.2" cy="51.9" r="48.7"/>
	<path class="st0" d="M52.3,3.1C25.3,3.1,3.5,25,3.5,51.9c0,26.9,21.8,48.7,48.7,48.7c26.9,0,48.7-21.8,48.7-48.7
		C101,25,79.2,3.1,52.3,3.1z M70.7,31.6H41v16.3h26.1v6.4H41v24.2h-7.2V25.3h36.8V31.6z"/>
	<path class="st1" d="M149.8,3.1C122.8,3.1,101,25,101,51.9c0,26.9,21.8,48.7,48.7,48.7c26.9,0,48.7-21.8,48.7-48.7
		C198.5,25,176.7,3.1,149.8,3.1z M171.4,31.6h-18v46.8h-7.2V31.6h-18v-6.4h43.2V31.6z"/>
	<g>
		<path class="st3" d="M260.2,40.8C259.8,32.6,253,30,247,30c-4.5,0-12.2,1.3-12.2,9.3c0,4.5,3.2,6,6.3,6.7l15.2,3.5
			c6.9,1.6,12.1,5.8,12.1,14.2c0,12.6-11.7,16.1-20.8,16.1c-9.9,0-13.7-3-16.1-5.1c-4.5-4.1-5.4-8.5-5.4-13.5h6.7
			c0,9.6,7.9,12.5,14.7,12.5c5.2,0,13.9-1.3,13.9-9c0-5.6-2.6-7.3-11.3-9.4l-10.9-2.5c-3.5-0.8-11.3-3.3-11.3-12.5
			c0-8.3,5.4-16.5,18.3-16.5c18.6,0,20.5,11.1,20.8,17H260.2z"/>
	</g>
</g>
</svg>
